<?xml version="1.0" encoding="UTF-8"?>
<svg width="820" height="520" viewBox="0 0 820 520" fill="none" xmlns="http://www.w3.org/2000/svg">
  <rect width="820" height="520" rx="24" fill="#FFFFFF"/>
  <rect x="24" y="24" width="772" height="100" rx="16" fill="#FDEBD0"/>
  <rect x="48" y="48" width="140" height="20" rx="8" fill="#DC143C"/>
  <rect x="48" y="78" width="220" height="16" rx="8" fill="#F75270"/>

  <g filter="url(#shadow1)">
    <rect x="24" y="148" width="364" height="160" rx="16" fill="#FFFFFF"/>
    <rect x="48" y="176" width="88" height="14" rx="7" fill="#94A3B8" fill-opacity="0.4"/>
    <rect x="48" y="202" width="120" height="40" rx="10" fill="#F7CAC9"/>
    <rect x="184" y="202" width="120" height="40" rx="10" fill="#FDEBD0"/>
    <rect x="48" y="252" width="256" height="14" rx="7" fill="#94A3B8" fill-opacity="0.3"/>
    <rect x="48" y="274" width="220" height="14" rx="7" fill="#94A3B8" fill-opacity="0.2"/>
  </g>

  <g filter="url(#shadow2)">
    <rect x="404" y="148" width="392" height="160" rx="16" fill="#FFFFFF"/>
    <rect x="428" y="176" width="120" height="14" rx="7" fill="#94A3B8" fill-opacity="0.4"/>
    <rect x="428" y="206" width="320" height="12" rx="6" fill="#E2E8F0"/>
    <rect x="428" y="206" width="240" height="12" rx="6" fill="#DC143C"/>
    <rect x="428" y="230" width="280" height="12" rx="6" fill="#E2E8F0"/>
    <rect x="428" y="230" width="180" height="12" rx="6" fill="#F75270"/>
  </g>

  <g filter="url(#shadow3)">
    <rect x="24" y="324" width="772" height="172" rx="16" fill="#FFFFFF"/>
    <circle cx="76" cy="382" r="24" fill="#DC143C"/>
    <rect x="116" y="370" width="160" height="14" rx="7" fill="#0F172A" fill-opacity="0.6"/>
    <rect x="116" y="394" width="220" height="12" rx="6" fill="#0F172A" fill-opacity="0.3"/>

    <circle cx="76" cy="446" r="24" fill="#F75270"/>
    <rect x="116" y="434" width="140" height="14" rx="7" fill="#0F172A" fill-opacity="0.6"/>
    <rect x="116" y="458" width="220" height="12" rx="6" fill="#0F172A" fill-opacity="0.3"/>

    <rect x="520" y="372" width="232" height="24" rx="12" fill="#DC143C"/>
    <rect x="520" y="408" width="200" height="24" rx="12" fill="#F7CAC9"/>
  </g>

  <defs>
    <filter id="shadow1" x="0" y="124" width="412" height="208" filterUnits="userSpaceOnUse" color-interpolation-filters="sRGB">
      <feFlood flood-opacity="0" result="BackgroundImageFix"/>
      <feColorMatrix in="SourceAlpha" type="matrix" values="0 0 0 0 0 0 0 0 0 0 0 0 0 0 0 0 0 0 127 0" result="hardAlpha"/>
      <feOffset dy="2"/>
      <feGaussianBlur stdDeviation="8"/>
      <feColorMatrix type="matrix" values="0 0 0 0 0 0 0 0 0 0 0 0 0 0 0 0 0 0 0.12 0"/>
      <feBlend mode="normal" in2="BackgroundImageFix" result="effect1_dropShadow"/>
      <feBlend mode="normal" in="SourceGraphic" in2="effect1_dropShadow" result="shape"/>
    </filter>
    <filter id="shadow2" x="380" y="124" width="440" height="208" filterUnits="userSpaceOnUse" color-interpolation-filters="sRGB">
      <feFlood flood-opacity="0" result="BackgroundImageFix"/>
      <feColorMatrix in="SourceAlpha" type="matrix" values="0 0 0 0 0 0 0 0 0 0 0 0 0 0 0 0 0 0 127 0" result="hardAlpha"/>
      <feOffset dy="2"/>
      <feGaussianBlur stdDeviation="8"/>
      <feColorMatrix type="matrix" values="0 0 0 0 0 0 0 0 0 0 0 0 0 0 0 0 0 0 0.12 0"/>
      <feBlend mode="normal" in2="BackgroundImageFix" result="effect1_dropShadow"/>
      <feBlend mode="normal" in="SourceGraphic" in2="effect1_dropShadow" result="shape"/>
    </filter>
    <filter id="shadow3" x="0" y="300" width="820" height="220" filterUnits="userSpaceOnUse" color-interpolation-filters="sRGB">
      <feFlood flood-opacity="0" result="BackgroundImageFix"/>
      <feColorMatrix in="SourceAlpha" type="matrix" values="0 0 0 0 0 0 0 0 0 0 0 0 0 0 0 0 0 0 127 0" result="hardAlpha"/>
      <feOffset dy="2"/>
      <feGaussianBlur stdDeviation="8"/>
      <feColorMatrix type="matrix" values="0 0 0 0 0 0 0 0 0 0 0 0 0 0 0 0 0 0 0.12 0"/>
      <feBlend mode="normal" in2="BackgroundImageFix" result="effect1_dropShadow"/>
      <feBlend mode="normal" in="SourceGraphic" in2="effect1_dropShadow" result="shape"/>
    </filter>
  </defs>
</svg>
